# xmcd
#
# Track frame offsets:
#	150
#	15561
#	30000
#	45061
#	51459
#	55290
#	65668
#	112653
#	128799
#	145475
#	164951
#	180902
#	194778
#	210882
#
# Disc length: 3049 seconds
#
# Revision: 1
# Processed by: cddbd v1.5.2PL0 Copyright (c) Steve Scherf et al.
# Submitted via: audiograbber 1.83.01
#
DISCID=bd0be70e
DTITLE=Jim Ringer - Waitin' for the Hard Times to Go
DYEAR=1972
DGENRE=National Folk
TTITLE0=Waitin' For the Hard Times to Go
TTITLE1=Paradise
TTITLE2=Every Bush and Tree
TTITLE3=Towser Jenkins
TTITLE4=I Gotta Get Drunk
TTITLE5=Granny's Song
TTITLE6=California Joe
TTITLE7=Dreary Black Hills
TTITLE8=Ground So Poor That Grass Won't Grow
TTITLE9=Old Bill Pickett
TTITLE10=Going Away
TTITLE11=The Girl I Left Behind
TTITLE12=Black Waters
TTITLE13=I Believe If I Lived My Life Again
EXTD=Folk-Legacy CD-47
EXTT0=
EXTT1=
EXTT2=
EXTT3=
EXTT4=
EXTT5=
EXTT6=
EXTT7=
EXTT8=
EXTT9=
EXTT10=
EXTT11=
EXTT12=
EXTT13=
PLAYORDER=
